# xmcd CD database file
#
# Track frame offsets:
#	150
#	14600
#	25700
#	37100
#	51830
#	63262
#	75600
#	88862
#	100392
#	113437
#	127487
#	140192
#	153607
#	165077
#	177030
#	187637
#
# Disc length: 2668 seconds
#
# Revision: 6
# Processed by: cddbd v1.5.2PL0 Copyright (c) Steve Scherf et al.
# Submitted via: CDex 1.70beta2
#
DISCID=cf0a6a10
DTITLE=TV Themes America - 16 Classic Theme - TV Themes America - 16 Classic Theme
DYEAR=2008
DGENRE=Salsa
TTITLE0=Dallas
TTITLE1=Perfect Strangers
TTITLE2=Knots Landing
TTITLE3=Midnight cCaller
TTITLE4=Head Of The Class
TTITLE5=Mission Impossible
TTITLE6=MacGyver
TTITLE7=Cagney And Lacey
TTITLE8=Dynasty
TTITLE9=The Odd Couple
TTITLE10=The High Chapparal
TTITLE11=Mash
TTITLE12=Bonanza
TTITLE13=Taxi
TTITLE14=The Rockford Files
TTITLE15=Dr. Kildare
EXTD=YEAR: 2008
EXTT0=
EXTT1=
EXTT2=
EXTT3=
EXTT4=
EXTT5=
EXTT6=
EXTT7=
EXTT8=
EXTT9=
EXTT10=
EXTT11=
EXTT12=
EXTT13=
EXTT14=
EXTT15=
PLAYORDER=
